<svg xmlns="http://www.w3.org/2000/svg" width="32" height="27"><defs><filter id="a" width="52.7" height="47.7" x="-10" y="-10" filterUnits="userSpaceOnUse"><feOffset dx=".7" dy=".7" in="SourceGraphic" result="FeOffset1032Out"/><feGaussianBlur in="FeOffset1032Out" result="FeGaussianBlur1033Out" stdDeviation="0 0"/></filter><filter id="c" width="200%" height="200%" x="-50%" y="-50%"><feGaussianBlur in="SourceGraphic" result="FeGaussianBlur1038Out" stdDeviation="0 0"/></filter><mask id="b" width="2" height="2" x="-1" y="-1"><path fill="#fff" d="M0 0h32v27H0z"/><path d="M32 3.575a13.117 13.117 0 01-3.77 1.034A6.585 6.585 0 0031.115.977a13.143 13.143 0 01-4.17 1.593A6.556 6.556 0 0022.156.497a6.565 6.565 0 00-6.565 6.565c0 .514.058 1.016.17 1.496a18.64 18.64 0 01-13.532-6.86A6.534 6.534 0 001.338 5a6.563 6.563 0 002.921 5.465 6.543 6.543 0 01-2.973-.821v.082a6.57 6.57 0 005.266 6.438 6.58 6.58 0 01-2.965.112 6.572 6.572 0 006.133 4.56 13.172 13.172 0 01-8.154 2.81c-.53 0-1.052-.031-1.566-.092a18.583 18.583 0 0010.064 2.95c12.075 0 18.679-10.004 18.679-18.68 0-.284-.006-.568-.019-.85A13.339 13.339 0 0032 3.576z"/></mask><mask id="d"><path fill="#fff" d="M32 3.575a13.117 13.117 0 01-3.77 1.034A6.585 6.585 0 0031.115.977a13.143 13.143 0 01-4.17 1.593A6.556 6.556 0 0022.156.497a6.565 6.565 0 00-6.565 6.565c0 .514.058 1.016.17 1.496a18.64 18.64 0 01-13.532-6.86A6.534 6.534 0 001.338 5a6.563 6.563 0 002.921 5.465 6.543 6.543 0 01-2.973-.821v.082a6.57 6.57 0 005.266 6.438 6.58 6.58 0 01-2.965.112 6.572 6.572 0 006.133 4.56 13.172 13.172 0 01-8.154 2.81c-.53 0-1.052-.031-1.566-.092a18.583 18.583 0 0010.064 2.95c12.075 0 18.679-10.004 18.679-18.68 0-.284-.006-.568-.019-.85A13.339 13.339 0 0032 3.576z"/></mask></defs><g filter="url(#a)"><path fill="none" d="M32 3.575a13.117 13.117 0 01-3.77 1.034A6.585 6.585 0 0031.115.977a13.143 13.143 0 01-4.17 1.593A6.556 6.556 0 0022.156.497a6.565 6.565 0 00-6.565 6.565c0 .514.058 1.016.17 1.496a18.64 18.64 0 01-13.532-6.86A6.534 6.534 0 001.338 5a6.563 6.563 0 002.921 5.465 6.543 6.543 0 01-2.973-.821v.082a6.57 6.57 0 005.266 6.438 6.58 6.58 0 01-2.965.112 6.572 6.572 0 006.133 4.56 13.172 13.172 0 01-8.154 2.81c-.53 0-1.052-.031-1.566-.092a18.583 18.583 0 0010.064 2.95c12.075 0 18.679-10.004 18.679-18.68 0-.284-.006-.568-.019-.85A13.339 13.339 0 0032 3.576z" mask="url(&quot;#b&quot;)"/><path fill="#fff" fill-opacity=".05" d="M32 3.575a13.117 13.117 0 01-3.77 1.034A6.585 6.585 0 0031.115.977a13.143 13.143 0 01-4.17 1.593A6.556 6.556 0 0022.156.497a6.565 6.565 0 00-6.565 6.565c0 .514.058 1.016.17 1.496a18.64 18.64 0 01-13.532-6.86A6.534 6.534 0 001.338 5a6.563 6.563 0 002.921 5.465 6.543 6.543 0 01-2.973-.821v.082a6.57 6.57 0 005.266 6.438 6.58 6.58 0 01-2.965.112 6.572 6.572 0 006.133 4.56 13.172 13.172 0 01-8.154 2.81c-.53 0-1.052-.031-1.566-.092a18.583 18.583 0 0010.064 2.95c12.075 0 18.679-10.004 18.679-18.68 0-.284-.006-.568-.019-.85A13.339 13.339 0 0032 3.576z"/></g><path fill="#313131" d="M32 3.575a13.117 13.117 0 01-3.77 1.034A6.585 6.585 0 0031.115.977a13.143 13.143 0 01-4.17 1.593A6.556 6.556 0 0022.156.497a6.565 6.565 0 00-6.565 6.565c0 .514.058 1.016.17 1.496a18.64 18.64 0 01-13.532-6.86A6.534 6.534 0 001.338 5a6.563 6.563 0 002.921 5.465 6.543 6.543 0 01-2.973-.821v.082a6.57 6.57 0 005.266 6.438 6.58 6.58 0 01-2.965.112 6.572 6.572 0 006.133 4.56 13.172 13.172 0 01-8.154 2.81c-.53 0-1.052-.031-1.566-.092a18.583 18.583 0 0010.064 2.95c12.075 0 18.679-10.004 18.679-18.68 0-.284-.006-.568-.019-.85A13.339 13.339 0 0032 3.576z"/><path fill-opacity=".47" d="M-1.4 28.4V-1.4h34.8v29.8zM33.4 4.975zM29.63 6.01a6.585 6.585 0 002.886-3.632 13.143 13.143 0 01-4.17 1.593 6.556 6.556 0 00-4.791-2.073 6.565 6.565 0 00-6.565 6.565c0 .514.058 1.016.17 1.496a18.64 18.64 0 01-13.532-6.86 6.534 6.534 0 00-.89 3.301 6.563 6.563 0 002.921 5.465 6.543 6.543 0 01-2.973-.821v.082a6.57 6.57 0 005.266 6.438 6.58 6.58 0 01-2.965.112 6.572 6.572 0 006.133 4.56 13.172 13.172 0 01-8.154 2.81c-.53 0-1.052-.031-1.566-.092a18.583 18.583 0 0010.064 2.95c12.075 0 18.679-10.004 18.679-18.68 0-.284-.006-.568-.019-.85A13.339 13.339 0 0033.4 4.976a13.117 13.117 0 01-3.77 1.034z" filter="url(#c)" mask="url(&quot;#d&quot;)"/></svg>