<svg xmlns="http://www.w3.org/2000/svg" width="32" height="32"><defs><filter id="a" width="52.7" height="52.7" x="-10" y="-10" filterUnits="userSpaceOnUse"><feOffset dx=".7" dy=".7" in="SourceGraphic" result="FeOffset1057Out"/><feGaussianBlur in="FeOffset1057Out" result="FeGaussianBlur1058Out" stdDeviation="0 0"/></filter><filter id="c" width="200%" height="200%" x="-50%" y="-50%"><feGaussianBlur in="SourceGraphic" result="FeGaussianBlur1063Out" stdDeviation="0 0"/></filter><mask id="b" width="2" height="2" x="-1" y="-1"><path fill="#fff" d="M0 0h32v32H0z"/><path d="M2.471-.009h27.057a2.464 2.464 0 012.465 2.465v27.16c0 1.36-1.103 2.361-2.465 2.361H2.471c-1.36 0-2.464-1-2.464-2.362V2.455A2.464 2.464 0 012.471-.008zM4.88 17.216h2.393v12.439h5.115V17.216h3.19l.884-3.745h-4.074v-1.344c0-.91.165-1.525.496-1.845.33-.32.987-.511 1.748-.511.774 0 1.395.36 2.176.816l.932-3.523c-1.435-.404-2.607-.9-4.104-.9-1.46 0-2.876.232-3.83.698-.955.466-1.644 1.29-2 2.032-.355.742-.533 1.644-.533 3.149v1.428H4.88z"/></mask><mask id="d"><path fill="#fff" d="M2.471-.009h27.057a2.464 2.464 0 012.465 2.465v27.16c0 1.36-1.103 2.361-2.465 2.361H2.471c-1.36 0-2.464-1-2.464-2.362V2.455A2.464 2.464 0 012.471-.008zM4.88 17.216h2.393v12.439h5.115V17.216h3.19l.884-3.745h-4.074v-1.344c0-.91.165-1.525.496-1.845.33-.32.987-.511 1.748-.511.774 0 1.395.36 2.176.816l.932-3.523c-1.435-.404-2.607-.9-4.104-.9-1.46 0-2.876.232-3.83.698-.955.466-1.644 1.29-2 2.032-.355.742-.533 1.644-.533 3.149v1.428H4.88z"/></mask></defs><g filter="url(#a)"><path fill="none" d="M2.471-.009h27.057a2.464 2.464 0 012.465 2.465v27.16c0 1.36-1.103 2.361-2.465 2.361H2.471c-1.36 0-2.464-1-2.464-2.362V2.455A2.464 2.464 0 012.471-.008zM4.88 17.216h2.393v12.439h5.115V17.216h3.19l.884-3.745h-4.074v-1.344c0-.91.165-1.525.496-1.845.33-.32.987-.511 1.748-.511.774 0 1.395.36 2.176.816l.932-3.523c-1.435-.404-2.607-.9-4.104-.9-1.46 0-2.876.232-3.83.698-.955.466-1.644 1.29-2 2.032-.355.742-.533 1.644-.533 3.149v1.428H4.88z" mask="url(&quot;#b&quot;)"/><path fill="#fff" fill-opacity=".05" d="M2.471-.009h27.057a2.464 2.464 0 012.465 2.465v27.16c0 1.36-1.103 2.361-2.465 2.361H2.471c-1.36 0-2.464-1-2.464-2.362V2.455A2.464 2.464 0 012.471-.008zM4.88 17.216h2.393v12.439h5.115V17.216h3.19l.884-3.745h-4.074v-1.344c0-.91.165-1.525.496-1.845.33-.32.987-.511 1.748-.511.774 0 1.395.36 2.176.816l.932-3.523c-1.435-.404-2.607-.9-4.104-.9-1.46 0-2.876.232-3.83.698-.955.466-1.644 1.29-2 2.032-.355.742-.533 1.644-.533 3.149v1.428H4.88z"/></g><path fill="#313131" d="M2.471-.009h27.057a2.464 2.464 0 012.465 2.465v27.16c0 1.36-1.103 2.361-2.465 2.361H2.471c-1.36 0-2.464-1-2.464-2.362V2.455A2.464 2.464 0 012.471-.008zM4.88 17.216h2.393v12.439h5.115V17.216h3.19l.884-3.745h-4.074v-1.344c0-.91.165-1.525.496-1.845.33-.32.987-.511 1.748-.511.774 0 1.395.36 2.176.816l.932-3.523c-1.435-.404-2.607-.9-4.104-.9-1.46 0-2.876.232-3.83.698-.955.466-1.644 1.29-2 2.032-.355.742-.533 1.644-.533 3.149v1.428H4.88z"/><path fill-opacity=".47" d="M-1.4 33.4V-1.4h34.8v34.8zM1.407 3.856v27.16c0 1.36 1.103 2.361 2.464 2.361h27.057c1.362 0 2.465-1 2.465-2.362V3.855a2.464 2.464 0 00-2.465-2.464H3.871a2.464 2.464 0 00-2.464 2.465zM6.28 14.87h2.393v-1.428c0-1.505.178-2.407.533-3.149.356-.741 1.045-1.566 2-2.032.954-.466 2.37-.699 3.83-.699 1.497 0 2.669.497 4.104.901l-.932 3.523c-.781-.456-1.402-.816-2.176-.816-.761 0-1.417.191-1.748.511-.33.32-.496.935-.496 1.845v1.344h4.074l-.884 3.745h-3.19v12.439H8.673V18.616H6.28z" filter="url(#c)" mask="url(&quot;#d&quot;)"/></svg>