<svg xmlns="http://www.w3.org/2000/svg" width="33" height="30"><defs><filter id="a" width="53.7" height="50.7" x="-10" y="-10" filterUnits="userSpaceOnUse"><feOffset dx=".7" dy=".7" in="SourceGraphic" result="FeOffset1107Out"/><feGaussianBlur in="FeOffset1107Out" result="FeGaussianBlur1108Out" stdDeviation="0 0"/></filter><filter id="c" width="200%" height="200%" x="-50%" y="-50%"><feGaussianBlur in="SourceGraphic" result="FeGaussianBlur1113Out" stdDeviation="0 0"/></filter><mask id="b" width="2" height="2" x="-1" y="-1"><path fill="#fff" d="M0 0h33v30H0z"/><path d="M7.485 1.204s3.329-1.917 4.464.126c.907.605 3.252 13.188 3.706 15.684.454 2.497 1.665 3.405 2.421 2.346.757-1.06 3.253-3.556 4.918-7.49 1.664-3.934-.53-4.438-1.211-4.211-.68.227-4.236.303-2.95-1.21 1.286-1.513 4.463-4.237 5.295-4.54C25.717.85 28.062-.536 30.03 1.734c1.21.908 4.01 4.237 1.286 9.154-2.723 4.917-13.39 17.475-13.39 17.475s-3.858 2.572-5.447 0S5.745 12.324 5.594 10.66c-.151-1.665-.605-2.118-1.437-1.665-.833.455-2.497 2.95-2.648 2.194-.151-.756-1.664-1.664-.757-3.177C1.66 6.5 6.804 1.733 7.485 1.204z"/></mask><mask id="d"><path fill="#fff" d="M7.485 1.204s3.329-1.917 4.464.126c.907.605 3.252 13.188 3.706 15.684.454 2.497 1.665 3.405 2.421 2.346.757-1.06 3.253-3.556 4.918-7.49 1.664-3.934-.53-4.438-1.211-4.211-.68.227-4.236.303-2.95-1.21 1.286-1.513 4.463-4.237 5.295-4.54C25.717.85 28.062-.536 30.03 1.734c1.21.908 4.01 4.237 1.286 9.154-2.723 4.917-13.39 17.475-13.39 17.475s-3.858 2.572-5.447 0S5.745 12.324 5.594 10.66c-.151-1.665-.605-2.118-1.437-1.665-.833.455-2.497 2.95-2.648 2.194-.151-.756-1.664-1.664-.757-3.177C1.66 6.5 6.804 1.733 7.485 1.204z"/></mask></defs><g filter="url(#a)"><path fill="none" d="M7.485 1.204s3.329-1.917 4.464.126c.907.605 3.252 13.188 3.706 15.684.454 2.497 1.665 3.405 2.421 2.346.757-1.06 3.253-3.556 4.918-7.49 1.664-3.934-.53-4.438-1.211-4.211-.68.227-4.236.303-2.95-1.21 1.286-1.513 4.463-4.237 5.295-4.54C25.717.85 28.062-.536 30.03 1.734c1.21.908 4.01 4.237 1.286 9.154-2.723 4.917-13.39 17.475-13.39 17.475s-3.858 2.572-5.447 0S5.745 12.324 5.594 10.66c-.151-1.665-.605-2.118-1.437-1.665-.833.455-2.497 2.95-2.648 2.194-.151-.756-1.664-1.664-.757-3.177C1.66 6.5 6.804 1.733 7.485 1.204z" mask="url(&quot;#b&quot;)"/><path fill="#fff" fill-opacity=".05" d="M7.485 1.204s3.329-1.917 4.464.126c.907.605 3.252 13.188 3.706 15.684.454 2.497 1.665 3.405 2.421 2.346.757-1.06 3.253-3.556 4.918-7.49 1.664-3.934-.53-4.438-1.211-4.211-.68.227-4.236.303-2.95-1.21 1.286-1.513 4.463-4.237 5.295-4.54C25.717.85 28.062-.536 30.03 1.734c1.21.908 4.01 4.237 1.286 9.154-2.723 4.917-13.39 17.475-13.39 17.475s-3.858 2.572-5.447 0S5.745 12.324 5.594 10.66c-.151-1.665-.605-2.118-1.437-1.665-.833.455-2.497 2.95-2.648 2.194-.151-.756-1.664-1.664-.757-3.177C1.66 6.5 6.804 1.733 7.485 1.204z"/></g><path fill="#313131" d="M7.485 1.204s3.329-1.917 4.464.126c.907.605 3.252 13.188 3.706 15.684.454 2.497 1.665 3.405 2.421 2.346.757-1.06 3.253-3.556 4.918-7.49 1.664-3.934-.53-4.438-1.211-4.211-.68.227-4.236.303-2.95-1.21 1.286-1.513 4.463-4.237 5.295-4.54C25.717.85 28.062-.536 30.03 1.734c1.21.908 4.01 4.237 1.286 9.154-2.723 4.917-13.39 17.475-13.39 17.475s-3.858 2.572-5.447 0S5.745 12.324 5.594 10.66c-.151-1.665-.605-2.118-1.437-1.665-.833.455-2.497 2.95-2.648 2.194-.151-.756-1.664-1.664-.757-3.177C1.66 6.5 6.804 1.733 7.485 1.204z"/><path fill-opacity=".47" d="M-1.4 31.4V-1.4h35.8v32.8zM8.885 2.604c-.68.53-5.825 5.295-6.733 6.808-.907 1.513.606 2.42.757 3.177.151.757 1.815-1.74 2.648-2.194.832-.453 1.286 0 1.437 1.665.151 1.664 5.295 15.13 6.884 17.702 1.589 2.572 5.447 0 5.447 0s10.667-12.558 13.39-17.475c2.723-4.917-.076-8.246-1.286-9.154-1.967-2.27-4.312-.883-5.9.177-.833.302-4.01 3.026-5.296 4.539-1.286 1.513 2.27 1.437 2.95 1.21.68-.227 2.875.277 1.21 4.211-1.664 3.934-4.16 6.43-4.917 7.49-.756 1.059-1.967.15-2.42-2.346-.455-2.496-2.8-15.08-3.707-15.684-1.135-2.043-4.464-.126-4.464-.126z" filter="url(#c)" mask="url(&quot;#d&quot;)"/></svg>