<svg xmlns="http://www.w3.org/2000/svg" width="32" height="32"><defs><filter id="a" width="52.7" height="52.7" x="-10" y="-10" filterUnits="userSpaceOnUse"><feOffset dx=".7" dy=".7" in="SourceGraphic" result="FeOffset1082Out"/><feGaussianBlur in="FeOffset1082Out" result="FeGaussianBlur1083Out" stdDeviation="0 0"/></filter><filter id="c" width="200%" height="200%" x="-50%" y="-50%"><feGaussianBlur in="SourceGraphic" result="FeGaussianBlur1088Out" stdDeviation="0 0"/></filter><mask id="b" width="2" height="2" x="-1" y="-1"><path fill="#fff" d="M0 0h32v32H0z"/><path d="M9.976 23.466c2.284 0 4.479-1.907 4.479-5.246 0-3.338-3.25-4.04-3.25-4.04s-.527-.06-2.225-.294c-1.699-.234-1.464-1.171-1.464-1.171 0-.996 1.347-1.01 1.347-1.01h6.677c2.05 0 1.504 1.509 1.504 1.509v5.095s.487 5.115 6.051 5.115 5.731-5.438 5.731-5.438V6.626c1.939 2.597 3.176 6.353 3.176 9.31 0 8.604-7.331 15.98-15.935 15.98-5.988 0-10.92-3.511-13.528-8.465 0 0 5.152.015 7.437.015zm15.04-5.363s-.279 2.141-1.919 2.141c-1.64 0-1.74-2.024-1.74-2.024v-5.27c0-4.393-4.178-4.452-4.178-4.452H7.984c-3.833 0-3.776 4.217-3.776 4.217 0 4.568 3.893 4.51 5.358 4.685 1.197.132 1.096 1.247 1.096 1.247 0 1.347-1.096 1.544-1.096 1.544H.99c-.329-1.26-.993-2.981-.993-4.344C-.002 7.243 7.462.001 16.067.001c3.232 0 6.456 1.34 8.945 3.025z"/></mask><mask id="d"><path fill="#fff" d="M9.976 23.466c2.284 0 4.479-1.907 4.479-5.246 0-3.338-3.25-4.04-3.25-4.04s-.527-.06-2.225-.294c-1.699-.234-1.464-1.171-1.464-1.171 0-.996 1.347-1.01 1.347-1.01h6.677c2.05 0 1.504 1.509 1.504 1.509v5.095s.487 5.115 6.051 5.115 5.731-5.438 5.731-5.438V6.626c1.939 2.597 3.176 6.353 3.176 9.31 0 8.604-7.331 15.98-15.935 15.98-5.988 0-10.92-3.511-13.528-8.465 0 0 5.152.015 7.437.015zm15.04-5.363s-.279 2.141-1.919 2.141c-1.64 0-1.74-2.024-1.74-2.024v-5.27c0-4.393-4.178-4.452-4.178-4.452H7.984c-3.833 0-3.776 4.217-3.776 4.217 0 4.568 3.893 4.51 5.358 4.685 1.197.132 1.096 1.247 1.096 1.247 0 1.347-1.096 1.544-1.096 1.544H.99c-.329-1.26-.993-2.981-.993-4.344C-.002 7.243 7.462.001 16.067.001c3.232 0 6.456 1.34 8.945 3.025z"/></mask></defs><g filter="url(#a)"><path fill="none" d="M9.976 23.466c2.284 0 4.479-1.907 4.479-5.246 0-3.338-3.25-4.04-3.25-4.04s-.527-.06-2.225-.294c-1.699-.234-1.464-1.171-1.464-1.171 0-.996 1.347-1.01 1.347-1.01h6.677c2.05 0 1.504 1.509 1.504 1.509v5.095s.487 5.115 6.051 5.115 5.731-5.438 5.731-5.438V6.626c1.939 2.597 3.176 6.353 3.176 9.31 0 8.604-7.331 15.98-15.935 15.98-5.988 0-10.92-3.511-13.528-8.465 0 0 5.152.015 7.437.015zm15.04-5.363s-.279 2.141-1.919 2.141c-1.64 0-1.74-2.024-1.74-2.024v-5.27c0-4.393-4.178-4.452-4.178-4.452H7.984c-3.833 0-3.776 4.217-3.776 4.217 0 4.568 3.893 4.51 5.358 4.685 1.197.132 1.096 1.247 1.096 1.247 0 1.347-1.096 1.544-1.096 1.544H.99c-.329-1.26-.993-2.981-.993-4.344C-.002 7.243 7.462.001 16.067.001c3.232 0 6.456 1.34 8.945 3.025z" mask="url(&quot;#b&quot;)"/><path fill="#fff" fill-opacity=".05" d="M9.976 23.466c2.284 0 4.479-1.907 4.479-5.246 0-3.338-3.25-4.04-3.25-4.04s-.527-.06-2.225-.294c-1.699-.234-1.464-1.171-1.464-1.171 0-.996 1.347-1.01 1.347-1.01h6.677c2.05 0 1.504 1.509 1.504 1.509v5.095s.487 5.115 6.051 5.115 5.731-5.438 5.731-5.438V6.626c1.939 2.597 3.176 6.353 3.176 9.31 0 8.604-7.331 15.98-15.935 15.98-5.988 0-10.92-3.511-13.528-8.465 0 0 5.152.015 7.437.015zm15.04-5.363s-.279 2.141-1.919 2.141c-1.64 0-1.74-2.024-1.74-2.024v-5.27c0-4.393-4.178-4.452-4.178-4.452H7.984c-3.833 0-3.776 4.217-3.776 4.217 0 4.568 3.893 4.51 5.358 4.685 1.197.132 1.096 1.247 1.096 1.247 0 1.347-1.096 1.544-1.096 1.544H.99c-.329-1.26-.993-2.981-.993-4.344C-.002 7.243 7.462.001 16.067.001c3.232 0 6.456 1.34 8.945 3.025z"/></g><path fill="#313131" d="M9.976 23.466c2.284 0 4.479-1.907 4.479-5.246 0-3.338-3.25-4.04-3.25-4.04s-.527-.06-2.225-.294c-1.699-.234-1.464-1.171-1.464-1.171 0-.996 1.347-1.01 1.347-1.01h6.677c2.05 0 1.504 1.509 1.504 1.509v5.095s.487 5.115 6.051 5.115 5.731-5.438 5.731-5.438V6.626c1.939 2.597 3.176 6.353 3.176 9.31 0 8.604-7.331 15.98-15.935 15.98-5.988 0-10.92-3.511-13.528-8.465 0 0 5.152.015 7.437.015zm15.04-5.363s-.279 2.141-1.919 2.141c-1.64 0-1.74-2.024-1.74-2.024v-5.27c0-4.393-4.178-4.452-4.178-4.452H7.984c-3.833 0-3.776 4.217-3.776 4.217 0 4.568 3.893 4.51 5.358 4.685 1.197.132 1.096 1.247 1.096 1.247 0 1.347-1.096 1.544-1.096 1.544H.99c-.329-1.26-.993-2.981-.993-4.344C-.002 7.243 7.462.001 16.067.001c3.232 0 6.456 1.34 8.945 3.025z"/><path fill-opacity=".47" d="M-1.4 33.4V-1.4h34.8v18.53c-.056-2.923-1.28-6.567-3.174-9.104v11.36s-.167 5.438-5.731 5.438-6.051-5.115-6.051-5.115v-5.095s.546-1.509-1.504-1.509h-6.677s-1.347.014-1.347 1.01c0 0-.235.937 1.464 1.171 1.698.235 2.225.293 2.225.293s3.25.703 3.25 4.041c0 3.339-2.195 5.246-4.48 5.246-2.284 0-7.436-.015-7.436-.015 2.609 4.954 7.54 8.465 13.528 8.465 8.522 0 15.796-7.237 15.933-15.736V33.4zm34.802-16.064c0-.068 0-.137-.002-.206v.45l.002-.244zm-6.99-12.91c-2.489-1.685-5.713-3.025-8.945-3.025-8.605 0-16.069 7.242-16.069 15.846 0 1.363.664 3.085.993 4.344h8.575s1.096-.197 1.096-1.544c0 0 .1-1.115-1.096-1.247-1.465-.175-5.358-.117-5.358-4.685 0 0-.057-4.217 3.776-4.217h9.195s4.178.059 4.178 4.451v5.271s.1 2.024 1.74 2.024 1.919-2.14 1.919-2.14z" filter="url(#c)" mask="url(&quot;#d&quot;)"/></svg>